<svg id="Capa_1" enable-background="new 0 0 512 512" height="512" viewBox="0 0 512 512" width="512" xmlns="http://www.w3.org/2000/svg"><g><path d="m421.697 99.625c7.186-6.601 18.502-5.823 24.653 1.75 34.066 41.942 54.495 95.464 54.649 153.963.307 116.438-80.614 214.029-189.29 239.299-1.039.242-2.118.239-3.16.011-16.928-3.698-34.511-5.648-52.549-5.648-17.956 0-35.461 1.932-52.318 5.599-1.194.26-2.432.264-3.622-.014-108.354-25.307-189.06-122.521-189.06-238.585 0-54.448 17.761-104.748 47.806-145.421 9.145-12.38 26.902-14.283 38.645-4.333 42.804 36.266 98.31 58.035 159.079 57.907 63.688-.136 121.67-24.571 165.167-64.528z" fill="#99302b"/><path d="m471 195c0 118.741-96.259 215-215 215s-215-96.259-215-215c0-29.224 5.831-57.087 16.392-82.488 44.511-61.501 116.887-101.512 198.608-101.512s154.097 40.011 198.608 101.512c10.561 25.401 16.392 53.264 16.392 82.488z" fill="#d73131"/><path d="m325.217 158.96 96.618 14.947c3.714.575 5.49 4.887 3.258 7.911l-63.964 86.653c-.727.985-1.068 2.203-.957 3.422l8.734 96.071c.403 4.438-4.762 7.147-8.184 4.291l-75.427-62.962c-1.929-1.611-4.754-1.539-6.599.168l-97.204 89.908c-3.575 3.306-9.286.072-8.289-4.694l22.359-106.957c.5-2.394-.804-4.798-3.084-5.684l-74.485-28.931c-3.57-1.387-4.32-6.108-1.354-8.532l54.073-44.198c1.676-1.37 2.28-3.662 1.497-5.68l-34.263-88.307c-1.572-4.052 2.418-8.042 6.47-6.47l88.278 34.251c2.032.788 4.34.17 5.706-1.529l59.325-73.802c2.723-3.388 8.174-1.927 8.838 2.368l14.476 93.577c.334 2.156 2.024 3.846 4.178 4.179z" fill="#fdf061"/><path d="m332 270v40c0 14.199-7.398 26.669-18.549 33.768-8.792 5.597-14.326 15.098-14.326 25.521v100.711h-89.125v-120h-10c-11.046 0-20-8.954-20-20v-60z" fill="#e3ac6e"/><path d="m502 280h-492c-5.523 0-10-4.477-10-10v-40c0-5.523 4.477-10 10-10h492c5.523 0 10 4.477 10 10v40c0 5.523-4.477 10-10 10z" fill="#003278"/><path d="m482 260h-452c-5.523 0-10-4.477-10-10v-20c0-5.523 4.477-10 10-10h452c5.523 0 10 4.477 10 10v20c0 5.523-4.477 10-10 10z" fill="#1f3595"/><path d="m80 310h-28c-2.761 0-5-2.239-5-5v-100c0-2.761 2.239-5 5-5h28c2.761 0 5 2.239 5 5v100c0 2.761-2.239 5-5 5zm347-105v100c0 2.761 2.239 5 5 5h28c2.761 0 5-2.239 5-5v-100c0-2.761-2.239-5-5-5h-28c-2.761 0-5 2.239-5 5z" fill="#4f66cf"/><path d="m156 100v310c0 11.046-8.954 20-20 20h-10c-11.046 0-20-8.954-20-20v-27.548c-2.942 1.702-6.357 2.676-10 2.676h-10c-11.046 0-20-8.954-20-20v-220.256c0-11.046 8.954-20 20-20h10c3.643 0 7.058.974 10 2.676v-27.548c0-11.046 8.954-20 20-20h10c11.046 0 20 8.954 20 20zm270 24.872h-10c-3.643 0-7.058.974-10 2.676v-27.548c0-11.046-8.954-20-20-20h-10c-11.046 0-20 8.954-20 20v310c0 11.046 8.954 20 20 20h10c11.046 0 20-8.954 20-20v-27.548c2.942 1.702 6.357 2.676 10 2.676h10c11.046 0 20-8.954 20-20v-220.256c0-11.046-8.954-20-20-20z" fill="#8694dd"/><path d="m136 359h-10c-11.046 0-20-8.954-20-20v-239c0-11.046 8.954-20 20-20h10c11.046 0 20 8.954 20 20v239c0 11.046-8.954 20-20 20zm260-214.128v164.128c0 11.046 8.954 20 20 20h10c11.046 0 20-8.954 20-20v-164.128c0-11.046-8.954-20-20-20h-10c-11.046 0-20 8.954-20 20z" fill="#a1ade5"/><path d="m340 205.5v30c0 8.284-6.716 15-15 15h-5c-8.284 0-15-6.716-15-15 0 8.284-6.716 15-15 15h-5c-8.284 0-15-6.716-15-15 0 8.284-6.716 15-15 15h-5c-8.284 0-15-6.716-15-15 0 8.284-6.716 15-15 15h-5c-8.284 0-15-6.716-15-15v-30c0-8.284 6.716-15 15-15h5c8.284 0 15 6.716 15 15 0-8.284 6.716-15 15-15h5c8.284 0 15 6.716 15 15 0-8.284 6.716-15 15-15h5c8.284 0 15 6.716 15 15 0-8.284 6.716-15 15-15h5c8.284 0 15 6.716 15 15z" fill="#eabe8d"/><path d="m260.188 249.579c-1.617.596-3.364.921-5.188.921h-5c-8.284 0-15-6.716-15-15v-30c0-8.284 6.716-15 15-15h5c1.823 0 3.571.325 5.188.921-5.728 2.111-9.813 7.618-9.813 14.079v30c0 6.461 4.085 11.967 9.813 14.079zm25.187-14.079v-30c0-6.461 4.085-11.967 9.813-14.079-1.617-.596-3.364-.921-5.188-.921h-5c-8.284 0-15 6.716-15 15v30c0 8.284 6.716 15 15 15h5c1.823 0 3.571-.325 5.188-.921-5.728-2.112-9.813-7.618-9.813-14.079zm34.998 0v-30c0-6.461 4.085-11.967 9.813-14.079-1.617-.596-3.364-.921-5.188-.921h-5c-8.284 0-15 6.716-15 15v30c0 8.284 6.716 15 15 15h5c1.823 0 3.571-.325 5.188-.921-5.728-2.112-9.813-7.618-9.813-14.079z" fill="#e3ac6e"/><path d="m262.5 225.5v10c0 2.761-2.239 5-5 5h-10c-2.761 0-5-2.239-5-5v-10c0-2.761 2.239-5 5-5h10c2.761 0 5 2.239 5 5zm-40-5h-10c-2.761 0-5 2.239-5 5v10c0 2.761 2.239 5 5 5h10c2.761 0 5-2.239 5-5v-10c0-2.761-2.239-5-5-5zm70 0h-10c-2.761 0-5 2.239-5 5v10c0 2.761 2.239 5 5 5h10c2.761 0 5-2.239 5-5v-10c0-2.761-2.239-5-5-5zm35 0h-10c-2.761 0-5 2.239-5 5v10c0 2.761 2.239 5 5 5h10c2.761 0 5-2.239 5-5v-10c0-2.761-2.239-5-5-5z" fill="#f8e6cc"/><path d="m230 330v130h-20v-100c0-5.523-4.477-10-10-10-11.046 0-20-8.954-20-20v-140c0-5.523 4.477-10 10-10h5c11.046 0 20 8.954 20 20v94.293c9.257 9.075 15 21.72 15 35.707z" fill="#d89c56"/><path d="m188.625 210h-8.625v-20h3.625c5.523 0 10 4.477 10 10v5c0 2.761-2.239 5-5 5z" fill="#f8e6cc"/><path d="m312 420v74.571c-17.985 4.205-36.733 6.429-56 6.429s-38.015-2.224-56-6.429v-74.571c0-5.523 4.477-10 10-10h92c5.523 0 10 4.477 10 10z" fill="#49cb5c"/><path d="m230 420v79.636c-10.2-1.076-20.213-2.778-30-5.066v-74.57c0-5.523 4.477-10 10-10h10c5.523 0 10 4.477 10 10z" fill="#0cc33c"/><path d="m190 420v-10c0-5.523 4.477-10 10-10h112c5.523 0 10 4.477 10 10v10c0 5.523-4.477 10-10 10h-112c-5.523 0-10-4.477-10-10z" fill="#bbe0fb"/><path d="m220 420v-10c0-5.523 4.477-10 10-10h82c5.523 0 10 4.477 10 10v10c0 5.523-4.477 10-10 10h-82c-5.523 0-10-4.477-10-10z" fill="#e3f0fb"/></g></svg>